<svg xmlns="http://www.w3.org/2000/svg" width="215" height="35" viewBox="0 0 215 35"><g><g><g><g><text dominant-baseline="text-before-edge" style="line-height:20px;font-kerning:normal" fill="#393c49" font-family="'Montserrat','Montserrat-SemiBold'" font-size="14" transform="translate(-762 -712)"><tspan>Calculá tu envío</tspan></text></g></g><g><g><path fill="none" stroke="#3aa644" stroke-linecap="round" stroke-linejoin="round" stroke-miterlimit="20" stroke-width="2" d="M27.73 7.16v17.983h-9.156c-.101-1.684-1.41-2.994-2.992-2.994-1.581 0-2.89 1.31-2.992 2.994H9.555v0V7.16v0z"/></g><g><path fill="none" stroke="#3aa644" stroke-linecap="round" stroke-linejoin="round" stroke-miterlimit="20" stroke-width="2" d="M37.716 18.796v6.347H35.72c-.102-1.684-1.41-2.994-2.992-2.994-1.581 0-2.89 1.31-2.992 2.994H27.73v0-12.694 0h2.007v0z"/></g><g><path fill="none" stroke="#3aa644" stroke-linecap="round" stroke-linejoin="round" stroke-miterlimit="20" stroke-width="2" d="M37.716 18.796v6.347H35.72c-.102-1.684-1.41-2.994-2.992-2.994-1.581 0-2.89 1.31-2.992 2.994H27.73v0-6.347 0z"/></g><g><path fill="none" stroke="#3aa644" stroke-linecap="round" stroke-linejoin="round" stroke-miterlimit="20" stroke-width="2" d="M12.578 25.143c0-1.753 1.342-3.174 2.998-3.174 1.656 0 2.998 1.421 2.998 3.174 0 1.752-1.342 3.173-2.998 3.173-1.656 0-2.998-1.42-2.998-3.173z"/></g><g><path fill="none" stroke="#3aa644" stroke-linecap="round" stroke-linejoin="round" stroke-miterlimit="20" stroke-width="2" d="M29.725 25.143c0-1.753 1.342-3.174 2.998-3.174 1.656 0 2.998 1.421 2.998 3.174 0 1.752-1.342 3.173-2.998 3.173-1.656 0-2.998-1.42-2.998-3.173z"/></g><g><path fill="none" stroke="#3aa644" stroke-linecap="square" stroke-linejoin="round" stroke-miterlimit="20" stroke-width="2" d="M2.657 13.507H5.89"/></g><g><path fill="none" stroke="#3aa644" stroke-linecap="square" stroke-linejoin="round" stroke-miterlimit="20" stroke-width="2" d="M3.36 17.738h3.234"/></g></g><g><g><text dominant-baseline="text-before-edge" style="line-height:26px;font-kerning:normal" fill="#009748" font-family="'Montserrat','Montserrat-Medium'" font-size="13" transform="translate(-762 -712)"><tspan>¡Llegamos a todo el país!</tspan></text></g></g></g></g></svg>